<svg width="1050" height="750.87" xmlns="http://www.w3.org/2000/svg">
 <title>fitness tracker</title>

 <g>
  <title>background</title>
  <rect fill="none" id="canvas_background" height="602" width="802" y="-1" x="-1"/>
 </g>
 <g>
  <title>Layer 1</title>
  <ellipse id="svg_1" opacity="0.1" fill="#3287ca" ry="33" rx="525" cy="717.87" cx="525"/>
  <path id="svg_2" fill="#3f3d56" d="m967.65,693.43a37,37 0 0 1 -0.8,7.76c-0.1,0.48 -0.21,1 -0.32,1.41c-2.84,11.39 -10.85,19.72 -20.41,20.25c-0.32,0 -0.64,0 -1,0c-10.11,0 -18.66,-8.72 -21.48,-20.73c-0.08,-0.32 -0.15,-0.64 -0.22,-1a37,37 0 0 1 -0.8,-7.76c0,-16.27 10.07,-29.45 22.5,-29.45s22.53,13.27 22.53,29.52z"/>
  <path id="svg_3" opacity="0.1" d="m967.65,693.43a37,37 0 0 1 -0.8,7.76c-0.1,0.48 -0.21,1 -0.32,1.41c-0.34,0 -0.67,0 -1,0a45.76,45.76 0 0 1 -7.36,-1a44.92,44.92 0 0 1 -6.56,1.5a45.87,45.87 0 0 1 -5.14,0.48l-1.74,0a46.41,46.41 0 0 1 -6.16,-0.41a45.17,45.17 0 0 1 -9.67,-2.4a45.56,45.56 0 0 1 -5.22,1.4c-0.08,-0.32 -0.15,-0.64 -0.22,-1a37,37 0 0 1 -0.8,-7.76c0,-16.27 10.07,-29.45 22.5,-29.45s22.49,13.22 22.49,29.47z"/>
  <path id="svg_4" fill="#3287ca" d="m1015.65,638.58a45.53,45.53 0 0 0 -4.9,-20.6l-26.46,8.23l23.23,-13.66a45.71,45.71 0 0 0 -34.36,-19.59a46.74,46.74 0 0 0 -3.57,-4.72l-38,11.83l31.17,-18.32a45.74,45.74 0 0 0 -72,24.38l32.55,37.48l-35.31,-25.55a45.74,45.74 0 0 0 40.93,80.71a46,46 0 0 0 29.28,0.8a45.74,45.74 0 0 0 55.62,-44.65c0,-1 0,-2 -0.1,-3a45.69,45.69 0 0 0 1.92,-13.34z"/>
  <path id="svg_5" opacity="0.1" d="m1014.86,647.07a121.66,121.66 0 0 0 -42.34,-0.54c-15.89,2.63 -32.13,8.41 -47.67,4.18c-9.12,-2.48 -17,-8.22 -25.91,-11.4a49.09,49.09 0 0 0 -26.75,-1.61a45.76,45.76 0 0 0 56.69,61.07a46,46 0 0 0 29.28,0.8a45.74,45.74 0 0 0 55.62,-44.65c0,-1 0,-2 -0.1,-3a45.19,45.19 0 0 0 1.18,-4.85z"/>
  <rect id="svg_6" fill="#3f3d56" rx="2.29" height="85.02" width="10.31" y="171.97" x="690.58"/>
  <rect id="svg_7" fill="#3f3d56" rx="1.5" height="27.99" width="5.79" y="105.36" x="347.76"/>
  <rect id="svg_8" fill="#3f3d56" rx="1.69" height="48.72" width="6.52" y="156.61" x="347.55"/>
  <rect id="svg_9" fill="#3f3d56" rx="1.61" height="49.14" width="6.21" y="222.37" x="347.65"/>
  <rect id="svg_10" fill="#3f3d56" rx="35.69" height="701.37" width="345.1" y="12.87" x="351.04"/>
  <rect id="svg_11" fill="#e6e8ec" rx="2.54" height="9.79" width="48.19" y="33.81" x="490.3"/>
  <circle id="svg_12" fill="#e6e8ec" r="5.55" cy="38.7" cx="551.33"/>
  <path id="svg_13" fill="#fff" d="m674.83,58.54l0,610a27.41,27.41 0 0 1 -27.41,27.4l-247.66,0a27.41,27.41 0 0 1 -27.41,-27.4l0,-610a27.41,27.41 0 0 1 27.41,-27.41l37.06,0l0,4.76a22.58,22.58 0 0 0 22.57,22.54l126,0a22.57,22.57 0 0 0 22.57,-22.57l0,-4.73l39.51,0a27.41,27.41 0 0 1 27.36,27.41z"/>
  <path id="svg_14" opacity="0.2" fill="#3287ca" d="m677,310.43l0,207.43l-2.17,0l0,0.21l-302.48,0l0,-253.42q2.91,-3.32 5.9,-6.89c42.48,-50.73 100.22,-64.08 144.91,-65.48c30.62,-1 61.1,5.33 90.2,17.9c15.37,6.64 37.43,13.92 61.47,14.64l0,78.42c1.47,4.19 2.17,7.19 2.17,7.19z"/>
  <path id="svg_15" opacity="0.2" fill="#3287ca" d="m677,310.43l0,207.43l-304.65,0l0,-135.88c10.85,-2.73 26,-13.23 45.44,-42.24c23.25,-34.71 54.84,-43.84 79.29,-44.8c16.75,-0.66 33.43,3.64 49.35,12.25c17.91,9.67 52.43,21.33 78.66,-12.52c29,-37.43 44.42,-6.56 49.74,8.57c1.47,4.19 2.17,7.19 2.17,7.19z"/>
  <rect id="svg_16" fill="#736e9e" rx="12" height="76" width="242" y="479.87" x="403"/>
  <path id="svg_17" fill="#3287ca" d="m134.06,683.72l19.14,-11.29a46,46 0 0 0 -9.79,-11.71l-36.11,11.27l28.3,-16.64a46,46 0 0 0 -68.1,40.35c0,25.41 20.59,26.29 46,26.29s46,-0.88 46,-26.29a45.75,45.75 0 0 0 -3.95,-18.66l-21.49,6.68z"/>
  <path id="svg_18" opacity="0.1" d="m138.93,708.43a35.81,35.81 0 0 0 -6.78,-5.33c-3.48,-2.31 -7.07,-4.66 -11.17,-5.45c-3.6,-0.69 -7.31,-0.11 -11,-0.31a25.67,25.67 0 0 1 -16.81,-7.71c-2.61,-2.7 -4.67,-6 -7.81,-8.09c-3.39,-2.22 -7.69,-2.7 -11.71,-2.15a33.67,33.67 0 0 0 -3.46,0.71a45.9,45.9 0 0 0 -2.72,15.61c0,25.41 20.59,26.29 46,26.29c12.33,0 23.52,-0.21 31.78,-3.33l-1.38,-2.58a36.08,36.08 0 0 0 -4.94,-7.66z"/>
  <g id="svg_25" opacity="0.1">
   <path id="svg_26" d="m150.35,258.37a96.62,96.62 0 0 0 19.57,-3.73c-1.8,0.25 -3.6,0.46 -5.41,0.61c-12.54,1.05 -26.26,0 -37.56,4.41c7.7,-0.79 15.77,-0.65 23.4,-1.29z"/>
   <path id="svg_27" d="m139.19,372c-3.15,2.6 -4.81,6.54 -6.77,10.13a53.3,53.3 0 0 1 -27.42,23.87c0.89,-0.06 1.78,-0.14 2.67,-0.25c16.23,-2 31.09,-12.4 39,-26.74c2,-3.59 3.61,-7.53 6.77,-10.13l0.54,-0.42c-5.49,-0.13 -10.75,0.2 -14.79,3.54z"/>
   <path id="svg_28" d="m276.56,239.43c-5,-5.74 -12.36,-8.93 -19.77,-10.67c-10,-2.34 -20.72,-2.31 -30.3,1.37l-0.64,0.26a58.13,58.13 0 0 1 16.78,1.49c7.41,1.74 14.78,4.93 19.77,10.68s7.09,14.44 3.59,21.2c-3.33,6.42 -10.1,4.42 -13.91,8.57c-3.5,3.79 -3.26,8.92 -5.62,13.5c-4.43,8.57 -11.14,15.79 -20.1,19.22c3.13,-0.74 6.49,-1.07 9.61,-1.75c11.28,-2.48 19.49,-10.63 24.64,-20.59c2.37,-4.58 2.13,-9.71 5.62,-13.5c3.82,-4.15 10.59,-2.16 13.91,-8.57c3.5,-6.74 1.41,-15.44 -3.58,-21.21z"/>
   <path id="svg_29" d="m221.82,306.43c-6.14,1.34 -13.16,1.31 -17.65,5.7c-5.57,5.45 -4.25,14.47 -4.93,22.22c-1.19,13.55 -10.72,25.68 -23.05,31.19l0.91,0c18.19,-0.56 34.7,-16.16 36.29,-34.29c0.69,-7.76 -0.63,-16.78 4.94,-22.22a13.6,13.6 0 0 1 4.42,-2.82l-0.93,0.22z"/>
  </g>
  <path id="svg_41" opacity="0.1" d="m262.07,240.13a13.55,13.55 0 0 0 -1.8,-0.87a13.54,13.54 0 0 1 -4.9,22.9c-7.8,2.56 -16.23,-2.24 -24.38,-1.24a8.41,8.41 0 0 0 -4.52,1.73c-3.63,3.14 -1.82,8.93 -0.53,13.56c0.84,3 1.86,13.93 -3.46,14.23l-0.09,0c1.65,1.61 3.14,2.66 4.2,2.6c5.32,-0.3 4.3,-11.22 3.46,-14.23c-1.29,-4.63 -3.1,-10.42 0.53,-13.56a8.41,8.41 0 0 1 4.52,-1.73c8.15,-1 16.58,3.8 24.38,1.24a13.56,13.56 0 0 0 2.59,-24.62l0,-0.01z"/>
  <rect id="svg_42" fill="#3f3d56" height="101" width="326" y="600.87" x="362"/>
  <path id="svg_43" fill="#fff" d="m511,633.51l0,35.7l28,-17.85l-28,-17.85z"/>
  <path id="svg_44" fill="#f2f2f2" d="m261,34.13l-15.52,9.84l9.42,-17.13a15.34,15.34 0 0 0 -9.39,-3.35l-0.25,0a18.16,18.16 0 0 1 -3.22,-0.24l-5.26,3.33l2.26,-4.1a18.62,18.62 0 0 1 -9.2,-7l-9.42,6l5.95,-10.81c-5.51,-6.61 -12.93,-10.66 -21.09,-10.66c-9.79,0 -18.51,5.82 -24.14,14.89a18,18 0 0 1 -16,8.6l-0.53,0c-10.81,0 -19.57,12.25 -19.57,27.37s8.76,27.37 19.57,27.37a14.73,14.73 0 0 0 6.82,-1.71a28.19,28.19 0 0 1 23.68,-0.46a24.66,24.66 0 0 0 20.14,0a28.25,28.25 0 0 1 23.48,0.46a14.65,14.65 0 0 0 6.74,1.67c10.81,0 19.57,-12.26 19.57,-27.37a34.71,34.71 0 0 0 -4.04,-16.7z"/>
  <path id="svg_45" opacity="0.03" d="m231.74,74.18a28.89,28.89 0 0 0 -16.74,1.82a24.71,24.71 0 0 1 -20.14,0a28.22,28.22 0 0 0 -23.68,0.47a14.75,14.75 0 0 1 -6.82,1.7c-9.6,0 -17.59,-9.67 -19.25,-22.43a18.68,18.68 0 0 0 4.8,-5.17c5.63,-9.08 14.35,-14.9 24.14,-14.9s18.4,5.75 24,14.73a18.51,18.51 0 0 0 15.95,8.71l0.25,0c7.65,0 14.27,6.13 17.49,15.07z"/>
  <path id="svg_46" fill="#f2f2f2" d="m792,257.17l-7.74,4.91l4.7,-8.55a7.67,7.67 0 0 0 -4.68,-1.67l-0.13,0a9.42,9.42 0 0 1 -1.6,-0.11l-2.67,1.68l1.13,-2.05a9.3,9.3 0 0 1 -4.59,-3.48l-4.7,3l3,-5.39a13.74,13.74 0 0 0 -10.52,-5.32c-4.88,0 -9.23,2.9 -12,7.43a9,9 0 0 1 -8,4.29l-0.26,0c-5.39,0 -9.76,6.12 -9.76,13.65s4.37,13.66 9.76,13.66a7.35,7.35 0 0 0 3.4,-0.85a14.08,14.08 0 0 1 11.81,-0.24a12.26,12.26 0 0 0 5,1.09a12.53,12.53 0 0 0 5,-1.06a14.11,14.11 0 0 1 11.71,0.22a7.27,7.27 0 0 0 3.36,0.84c5.39,0 9.76,-6.12 9.76,-13.66a17.3,17.3 0 0 0 -1.98,-8.39z"/>
  <path id="svg_47" opacity="0.03" d="m777.37,277.15a14.32,14.32 0 0 0 -8.36,0.91a12.28,12.28 0 0 1 -10,0a14.12,14.12 0 0 0 -11.81,0.23a7.33,7.33 0 0 1 -3.4,0.86c-4.79,0 -8.77,-4.83 -9.6,-11.19a9.21,9.21 0 0 0 2.39,-2.58c2.81,-4.53 7.16,-7.43 12,-7.43s9.18,2.87 12,7.34a9.22,9.22 0 0 0 8,4.37l0.12,0c3.75,-0.03 7.06,3.03 8.66,7.49z"/>
  <path id="svg_48" fill="#f2f2f2" d="m809.13,129.66l12.43,7.89l-7.56,-13.73a12.32,12.32 0 0 1 7.52,-2.68l0.2,0a14.65,14.65 0 0 0 2.58,-0.19l4.22,2.67l-1.81,-3.28a15.06,15.06 0 0 0 7.37,-5.6l7.55,4.78l-4.77,-8.66c4.41,-5.3 10.36,-8.54 16.9,-8.54c7.85,0 14.83,4.66 19.34,11.93a14.45,14.45 0 0 0 12.79,6.89l0.42,0c8.66,0 15.68,9.82 15.68,21.93s-7,21.93 -15.68,21.93a11.81,11.81 0 0 1 -5.46,-1.37a22.59,22.59 0 0 0 -19,-0.37a19.77,19.77 0 0 1 -16.13,0a22.62,22.62 0 0 0 -18.81,0.36a11.86,11.86 0 0 1 -5.41,1.34c-8.66,0 -15.68,-9.82 -15.68,-21.93a27.89,27.89 0 0 1 3.31,-13.37z"/>
  <path id="svg_49" opacity="0.03" d="m832.56,161.75a23.14,23.14 0 0 1 13.44,1.46a19.77,19.77 0 0 0 16.13,0a22.63,22.63 0 0 1 19,0.38a11.8,11.8 0 0 0 5.46,1.36c7.69,0 14.09,-7.75 15.43,-18a14.56,14.56 0 0 1 -3.85,-4.15c-4.51,-7.26 -11.5,-11.93 -19.34,-11.93s-14.75,4.61 -19.26,11.8a14.83,14.83 0 0 1 -12.78,7l-0.2,0c-6.14,0.01 -11.45,4.92 -14.03,12.08z"/>
 </g>
</svg>